<svg width="968" height="225" viewBox="0 0 968 225" fill="none" xmlns="http://www.w3.org/2000/svg">
<path d="M274.056 94.875H294.086C293.684 101.44 291.876 107.268 288.66 112.36C285.489 117.451 281.045 121.426 275.329 124.284C269.657 127.143 262.823 128.572 254.829 128.572C248.577 128.572 242.972 127.5 238.014 125.356C233.057 123.168 228.814 120.042 225.286 115.977C221.802 111.913 219.145 107.001 217.314 101.239C215.483 95.4779 214.567 89.0243 214.567 81.8785V75.1124C214.567 67.9666 215.505 61.513 217.381 55.7517C219.301 49.9457 222.025 45.0107 225.554 40.9465C229.127 36.8823 233.392 33.756 238.349 31.5676C243.306 29.3792 248.844 28.285 254.963 28.285C263.091 28.285 269.947 29.7589 275.53 32.7065C281.157 35.6541 285.511 39.7183 288.593 44.899C291.719 50.0797 293.595 55.975 294.22 62.5849H274.123C273.899 58.6547 273.118 55.3274 271.778 52.6031C270.438 49.8341 268.406 47.7573 265.682 46.3728C263.002 44.9437 259.429 44.2291 254.963 44.2291C251.613 44.2291 248.688 44.8544 246.187 46.1049C243.686 47.3554 241.587 49.2535 239.89 51.7992C238.193 54.3449 236.92 57.5605 236.071 61.446C235.267 65.2869 234.866 69.7977 234.866 74.9784V81.8785C234.866 86.9253 235.245 91.3691 236.004 95.2099C236.764 99.0061 237.925 102.222 239.488 104.857C241.096 107.447 243.15 109.412 245.651 110.752C248.197 112.047 251.256 112.695 254.829 112.695C259.027 112.695 262.488 112.025 265.213 110.685C267.937 109.345 270.014 107.358 271.443 104.723C272.917 102.088 273.788 98.8052 274.056 94.875ZM387.406 76.1842V80.8067C387.406 88.2204 386.401 94.875 384.391 100.77C382.382 106.666 379.546 111.69 375.883 115.843C372.221 119.952 367.844 123.101 362.753 125.289C357.706 127.478 352.101 128.572 345.938 128.572C339.819 128.572 334.214 127.478 329.123 125.289C324.076 123.101 319.7 119.952 315.993 115.843C312.286 111.69 309.405 106.666 307.351 100.77C305.341 94.875 304.336 88.2204 304.336 80.8067V76.1842C304.336 68.7258 305.341 62.0713 307.351 56.2207C309.36 50.3254 312.196 45.301 315.859 41.1475C319.566 36.994 323.942 33.823 328.989 31.6346C334.08 29.4462 339.685 28.352 345.804 28.352C351.967 28.352 357.572 29.4462 362.619 31.6346C367.71 33.823 372.087 36.994 375.749 41.1475C379.456 45.301 382.315 50.3254 384.324 56.2207C386.379 62.0713 387.406 68.7258 387.406 76.1842ZM367.107 80.8067V76.0503C367.107 70.8695 366.639 66.3141 365.701 62.3839C364.763 58.4537 363.378 55.1488 361.547 52.4691C359.716 49.7894 357.483 47.7797 354.848 46.4398C352.213 45.0553 349.198 44.3631 345.804 44.3631C342.41 44.3631 339.395 45.0553 336.76 46.4398C334.17 47.7797 331.959 49.7894 330.128 52.4691C328.342 55.1488 326.979 58.4537 326.041 62.3839C325.104 66.3141 324.635 70.8695 324.635 76.0503V80.8067C324.635 85.9427 325.104 90.4982 326.041 94.473C326.979 98.4032 328.364 101.73 330.195 104.455C332.026 107.134 334.259 109.167 336.894 110.551C339.529 111.936 342.544 112.628 345.938 112.628C349.332 112.628 352.347 111.936 354.982 110.551C357.617 109.167 359.828 107.134 361.614 104.455C363.401 101.73 364.763 98.4032 365.701 94.473C366.639 90.4982 367.107 85.9427 367.107 80.8067ZM481.262 29.6919V127.232H461.164L421.974 61.848V127.232H401.876V29.6919H421.974L461.231 95.1429V29.6919H481.262ZM549.526 101.708C549.526 99.9664 549.258 98.4032 548.722 97.0187C548.231 95.5896 547.293 94.2944 545.909 93.1332C544.524 91.9273 542.582 90.7438 540.081 89.5826C537.58 88.4214 534.342 87.2156 530.367 85.9651C525.945 84.5359 521.747 82.9281 517.772 81.1416C513.842 79.3552 510.358 77.2784 507.322 74.9114C504.329 72.4997 501.962 69.7084 500.22 66.5374C498.523 63.3665 497.675 59.6819 497.675 55.4837C497.675 51.4196 498.568 47.735 500.354 44.4301C502.141 41.0805 504.642 38.2222 507.857 35.8551C511.073 33.4434 514.869 31.59 519.246 30.2948C523.668 28.9996 528.513 28.352 533.783 28.352C540.974 28.352 547.249 29.6472 552.608 32.2376C557.967 34.8279 562.121 38.3785 565.069 42.8893C568.061 47.4001 569.557 52.5584 569.557 58.3644H549.593C549.593 55.5061 548.99 53.005 547.785 50.8613C546.623 48.6729 544.837 46.9534 542.425 45.7029C540.058 44.4524 537.066 43.8272 533.448 43.8272C529.965 43.8272 527.062 44.3631 524.739 45.435C522.417 46.4622 520.675 47.869 519.514 49.6554C518.353 51.3972 517.772 53.3623 517.772 55.5507C517.772 57.2032 518.174 58.6994 518.978 60.0392C519.827 61.379 521.077 62.6295 522.73 63.7907C524.382 64.9519 526.414 66.0461 528.826 67.0733C531.238 68.1005 534.029 69.1054 537.2 70.088C542.515 71.6958 547.182 73.5046 551.201 75.5143C555.265 77.5241 558.66 79.7795 561.384 82.2805C564.108 84.7815 566.163 87.6175 567.547 90.7885C568.932 93.9594 569.624 97.5546 569.624 101.574C569.624 105.817 568.798 109.613 567.145 112.963C565.493 116.312 563.103 119.148 559.977 121.471C556.851 123.793 553.122 125.557 548.789 126.763C544.457 127.969 539.612 128.572 534.252 128.572C529.429 128.572 524.672 127.947 519.983 126.696C515.294 125.401 511.028 123.458 507.188 120.868C503.391 118.277 500.354 114.973 498.077 110.953C495.799 106.934 494.66 102.177 494.66 96.6838H514.825C514.825 99.7207 515.294 102.289 516.231 104.388C517.169 106.487 518.487 108.184 520.184 109.479C521.926 110.774 523.98 111.712 526.347 112.293C528.759 112.873 531.394 113.164 534.252 113.164C537.736 113.164 540.594 112.672 542.827 111.69C545.105 110.707 546.78 109.345 547.852 107.603C548.968 105.862 549.526 103.897 549.526 101.708ZM648.741 111.556V127.232H596.823V111.556H648.741ZM603.388 29.6919V127.232H583.29V29.6919H603.388ZM641.975 69.4181V84.6922H596.823V69.4181H641.975ZM648.674 29.6919V45.435H596.823V29.6919H648.674ZM660.465 29.6919H696.842C704.3 29.6919 710.709 30.8084 716.068 33.0415C721.472 35.2745 725.626 38.5795 728.529 42.9563C731.432 47.3331 732.883 52.7147 732.883 59.1013C732.883 64.3267 731.99 68.8151 730.204 72.5667C728.462 76.2736 725.983 79.3775 722.767 81.8785C719.596 84.3349 715.867 86.3 711.58 87.7738L705.216 91.1234H673.595L673.461 75.4473H696.976C700.504 75.4473 703.429 74.8221 705.751 73.5716C708.074 72.321 709.816 70.5792 710.977 68.3462C712.183 66.1131 712.786 63.5228 712.786 60.5751C712.786 57.4488 712.205 54.7468 711.044 52.4691C709.883 50.1914 708.119 48.4496 705.751 47.2437C703.384 46.0379 700.414 45.435 696.842 45.435H680.563V127.232H660.465V29.6919ZM714.996 127.232L692.755 83.7543L713.991 83.6203L736.501 126.294V127.232H714.996ZM782.189 106.867L805.167 29.6919H827.543L793.578 127.232H778.84L782.189 106.867ZM761.02 29.6919L783.931 106.867L787.415 127.232H772.542L738.779 29.6919H761.02ZM902.105 111.556V127.232H850.186V111.556H902.105ZM856.751 29.6919V127.232H836.654V29.6919H856.751ZM895.339 69.4181V84.6922H850.186V69.4181H895.339ZM902.038 29.6919V45.435H850.186V29.6919H902.038Z" fill="#C03737"/>
<rect y="162.106" width="958.365" height="62.7197" fill="black"/>
<path d="M236.672 210.048V217.886H210.713V210.048H236.672ZM213.995 169.116V217.886H203.946V169.116H213.995ZM233.289 188.979V196.617H210.713V188.979H233.289ZM236.638 169.116V176.988H210.713V169.116H236.638ZM282.226 169.116V217.886H272.178L252.583 185.194V217.886H242.534V169.116H252.583L272.211 201.842V169.116H282.226ZM310.698 202.914V169.116H320.713V202.914C320.713 206.174 319.999 208.977 318.57 211.321C317.14 213.644 315.186 215.43 312.708 216.681C310.251 217.931 307.482 218.556 304.401 218.556C301.207 218.556 298.383 218.02 295.926 216.949C293.47 215.877 291.538 214.235 290.131 212.025C288.725 209.792 288.021 206.967 288.021 203.55H298.103C298.103 205.337 298.349 206.755 298.84 207.804C299.354 208.854 300.08 209.602 301.018 210.048C301.956 210.495 303.083 210.718 304.401 210.718C305.674 210.718 306.779 210.417 307.717 209.814C308.655 209.211 309.38 208.329 309.894 207.168C310.43 206.007 310.698 204.589 310.698 202.914ZM369.349 192.363V194.674C369.349 198.381 368.847 201.708 367.842 204.656C366.837 207.603 365.419 210.115 363.588 212.192C361.757 214.247 359.569 215.821 357.023 216.915C354.499 218.009 351.697 218.556 348.615 218.556C345.556 218.556 342.754 218.009 340.208 216.915C337.685 215.821 335.496 214.247 333.643 212.192C331.789 210.115 330.349 207.603 329.322 204.656C328.317 201.708 327.814 198.381 327.814 194.674V192.363C327.814 188.633 328.317 185.306 329.322 182.381C330.327 179.433 331.745 176.921 333.576 174.844C335.429 172.767 337.618 171.182 340.141 170.088C342.687 168.994 345.489 168.446 348.548 168.446C351.63 168.446 354.433 168.994 356.956 170.088C359.502 171.182 361.69 172.767 363.521 174.844C365.375 176.921 366.804 179.433 367.809 182.381C368.836 185.306 369.349 188.633 369.349 192.363ZM359.2 194.674V192.296C359.2 189.705 358.966 187.427 358.497 185.462C358.028 183.497 357.335 181.845 356.42 180.505C355.504 179.165 354.388 178.16 353.07 177.49C351.753 176.798 350.246 176.452 348.548 176.452C346.851 176.452 345.344 176.798 344.026 177.49C342.731 178.16 341.626 179.165 340.71 180.505C339.817 181.845 339.136 183.497 338.667 185.462C338.198 187.427 337.964 189.705 337.964 192.296V194.674C337.964 197.242 338.198 199.52 338.667 201.507C339.136 203.472 339.828 205.136 340.744 206.498C341.659 207.838 342.776 208.854 344.093 209.546C345.411 210.238 346.918 210.584 348.615 210.584C350.313 210.584 351.82 210.238 353.137 209.546C354.455 208.854 355.56 207.838 356.453 206.498C357.347 205.136 358.028 203.472 358.497 201.507C358.966 199.52 359.2 197.242 359.2 194.674ZM381.81 169.116L391.993 191.358L402.175 169.116H413.129L397.084 200.134V217.886H386.901V200.134L370.823 169.116H381.81ZM441.366 169.116L451.548 191.358L461.731 169.116H472.684L456.64 200.134V217.886H446.457V200.134L430.379 169.116H441.366ZM516.196 192.363V194.674C516.196 198.381 515.693 201.708 514.688 204.656C513.683 207.603 512.265 210.115 510.434 212.192C508.603 214.247 506.415 215.821 503.869 216.915C501.346 218.009 498.543 218.556 495.462 218.556C492.402 218.556 489.6 218.009 487.054 216.915C484.531 215.821 482.342 214.247 480.489 212.192C478.635 210.115 477.195 207.603 476.168 204.656C475.163 201.708 474.661 198.381 474.661 194.674V192.363C474.661 188.633 475.163 185.306 476.168 182.381C477.173 179.433 478.591 176.921 480.422 174.844C482.275 172.767 484.464 171.182 486.987 170.088C489.533 168.994 492.335 168.446 495.395 168.446C498.476 168.446 501.279 168.994 503.802 170.088C506.348 171.182 508.536 172.767 510.367 174.844C512.221 176.921 513.65 179.433 514.655 182.381C515.682 185.306 516.196 188.633 516.196 192.363ZM506.046 194.674V192.296C506.046 189.705 505.812 187.427 505.343 185.462C504.874 183.497 504.182 181.845 503.266 180.505C502.351 179.165 501.234 178.16 499.917 177.49C498.599 176.798 497.092 176.452 495.395 176.452C493.697 176.452 492.19 176.798 490.873 177.49C489.577 178.16 488.472 179.165 487.557 180.505C486.663 181.845 485.982 183.497 485.513 185.462C485.044 187.427 484.81 189.705 484.81 192.296V194.674C484.81 197.242 485.044 199.52 485.513 201.507C485.982 203.472 486.674 205.136 487.59 206.498C488.506 207.838 489.622 208.854 490.94 209.546C492.257 210.238 493.764 210.584 495.462 210.584C497.159 210.584 498.666 210.238 499.984 209.546C501.301 208.854 502.406 207.838 503.3 206.498C504.193 205.136 504.874 203.472 505.343 201.507C505.812 199.52 506.046 197.242 506.046 194.674ZM550.361 169.116H560.377V201.339C560.377 205.091 559.573 208.251 557.965 210.819C556.38 213.387 554.18 215.318 551.366 216.614C548.575 217.909 545.359 218.556 541.719 218.556C538.08 218.556 534.842 217.909 532.006 216.614C529.192 215.318 526.981 213.387 525.373 210.819C523.788 208.251 522.995 205.091 522.995 201.339V169.116H533.044V201.339C533.044 203.528 533.39 205.314 534.082 206.699C534.775 208.083 535.768 209.099 537.064 209.747C538.381 210.395 539.933 210.718 541.719 210.718C543.551 210.718 545.103 210.395 546.375 209.747C547.671 209.099 548.653 208.083 549.323 206.699C550.015 205.314 550.361 203.528 550.361 201.339V169.116ZM568.65 169.116H586.839C590.568 169.116 593.772 169.675 596.452 170.791C599.154 171.908 601.231 173.56 602.682 175.749C604.134 177.937 604.859 180.628 604.859 183.821C604.859 186.434 604.413 188.678 603.52 190.554C602.649 192.407 601.409 193.959 599.801 195.21C598.216 196.438 596.351 197.42 594.208 198.157L591.026 199.832H575.215L575.148 191.994H586.906C588.67 191.994 590.132 191.681 591.294 191.056C592.455 190.431 593.326 189.56 593.906 188.444C594.509 187.327 594.811 186.032 594.811 184.558C594.811 182.995 594.52 181.644 593.94 180.505C593.359 179.366 592.477 178.495 591.294 177.892C590.11 177.289 588.625 176.988 586.839 176.988H578.699V217.886H568.65V169.116ZM595.916 217.886L584.795 196.148L595.414 196.081L606.668 217.418V217.886H595.916ZM661.032 210.048V217.886H636.48V210.048H661.032ZM639.729 169.116V217.886H629.68V169.116H639.729ZM677.479 169.116V217.886H667.463V169.116H677.479ZM696.94 169.116V217.886H686.891V169.116H696.94ZM716.367 189.951V197.789H694.193V189.951H716.367ZM718.712 169.116V176.988H694.193V169.116H718.712ZM757.266 210.048V217.886H731.307V210.048H757.266ZM734.589 169.116V217.886H724.54V169.116H734.589ZM753.883 188.979V196.617H731.307V188.979H753.883ZM757.232 169.116V176.988H731.307V169.116H757.232Z" fill="#C03737"/>
<g filter="url(#filter0_d_330_123)">
<path d="M92.0078 7.26648L108.366 53.652H161.303L118.476 82.3198L134.835 128.705L92.0078 100.037L49.181 128.705L65.5393 82.3198L22.7126 53.652H75.6494L92.0078 7.26648Z" fill="#C03737"/>
<path d="M92.0078 17.3586L105.201 54.7683L105.991 57.0084H108.366H150.255L116.609 79.5305L114.444 80.9795L115.311 83.4361L128.311 120.299L93.8748 97.2482L92.0078 95.9984L90.1407 97.2482L55.7045 120.299L68.7048 83.4361L69.5711 80.9795L67.4064 79.5305L33.7608 57.0084H75.6494H78.0248L78.8148 54.7683L92.0078 17.3586Z" stroke="black" stroke-width="6.71297"/>
<path d="M92.0078 17.3586L105.201 54.7683L105.991 57.0084H108.366H150.255L116.609 79.5305L114.444 80.9795L115.311 83.4361L128.311 120.299L93.8748 97.2482L92.0078 95.9984L90.1407 97.2482L55.7045 120.299L68.7048 83.4361L69.5711 80.9795L67.4064 79.5305L33.7608 57.0084H75.6494H78.0248L78.8148 54.7683L92.0078 17.3586Z" stroke="#5226CE" stroke-opacity="0.2" stroke-width="6.71297"/>
</g>
<rect x="10.6895" y="162.163" width="957.306" height="62.7197" fill="black"/>
<path d="M246.832 210.105V217.943H220.873V210.105H246.832ZM224.155 169.173V217.943H214.106V169.173H224.155ZM243.449 189.036V196.673H220.873V189.036H243.449ZM246.798 169.173V177.045H220.873V169.173H246.798ZM292.386 169.173V217.943H282.338L262.742 185.251V217.943H252.694V169.173H262.742L282.371 201.899V169.173H292.386ZM320.858 202.971V169.173H330.873V202.971C330.873 206.231 330.159 209.033 328.729 211.378C327.3 213.701 325.346 215.487 322.868 216.738C320.411 217.988 317.642 218.613 314.561 218.613C311.367 218.613 308.543 218.077 306.086 217.005C303.63 215.934 301.698 214.292 300.291 212.082C298.885 209.849 298.181 207.024 298.181 203.607H308.263C308.263 205.394 308.509 206.812 309 207.861C309.514 208.911 310.24 209.659 311.178 210.105C312.115 210.552 313.243 210.775 314.561 210.775C315.834 210.775 316.939 210.474 317.877 209.871C318.815 209.268 319.54 208.386 320.054 207.225C320.59 206.063 320.858 204.645 320.858 202.971ZM379.509 192.419V194.731C379.509 198.438 379.007 201.765 378.002 204.712C376.997 207.66 375.579 210.172 373.748 212.249C371.917 214.303 369.729 215.878 367.183 216.972C364.659 218.066 361.857 218.613 358.775 218.613C355.716 218.613 352.914 218.066 350.368 216.972C347.845 215.878 345.656 214.303 343.803 212.249C341.949 210.172 340.509 207.66 339.482 204.712C338.477 201.765 337.974 198.438 337.974 194.731V192.419C337.974 188.69 338.477 185.363 339.482 182.438C340.487 179.49 341.905 176.978 343.736 174.901C345.589 172.824 347.778 171.239 350.301 170.145C352.847 169.05 355.649 168.503 358.708 168.503C361.79 168.503 364.592 169.05 367.116 170.145C369.662 171.239 371.85 172.824 373.681 174.901C375.534 176.978 376.964 179.49 377.969 182.438C378.996 185.363 379.509 188.69 379.509 192.419ZM369.36 194.731V192.352C369.36 189.762 369.126 187.484 368.657 185.519C368.188 183.554 367.495 181.902 366.58 180.562C365.664 179.222 364.548 178.217 363.23 177.547C361.913 176.855 360.405 176.509 358.708 176.509C357.011 176.509 355.504 176.855 354.186 177.547C352.891 178.217 351.786 179.222 350.87 180.562C349.977 181.902 349.296 183.554 348.827 185.519C348.358 187.484 348.124 189.762 348.124 192.352V194.731C348.124 197.299 348.358 199.576 348.827 201.564C349.296 203.529 349.988 205.193 350.904 206.555C351.819 207.895 352.936 208.911 354.253 209.603C355.571 210.295 357.078 210.641 358.775 210.641C360.472 210.641 361.98 210.295 363.297 209.603C364.615 208.911 365.72 207.895 366.613 206.555C367.507 205.193 368.188 203.529 368.657 201.564C369.126 199.576 369.36 197.299 369.36 194.731ZM391.97 169.173L402.153 191.415L412.335 169.173H423.289L407.244 200.191V217.943H397.061V200.191L380.983 169.173H391.97ZM451.526 169.173L461.708 191.415L471.891 169.173H482.844L466.8 200.191V217.943H456.617V200.191L440.539 169.173H451.526ZM526.356 192.419V194.731C526.356 198.438 525.853 201.765 524.848 204.712C523.843 207.66 522.425 210.172 520.594 212.249C518.763 214.303 516.575 215.878 514.029 216.972C511.506 218.066 508.703 218.613 505.622 218.613C502.562 218.613 499.76 218.066 497.214 216.972C494.691 215.878 492.502 214.303 490.649 212.249C488.795 210.172 487.355 207.66 486.328 204.712C485.323 201.765 484.821 198.438 484.821 194.731V192.419C484.821 188.69 485.323 185.363 486.328 182.438C487.333 179.49 488.751 176.978 490.582 174.901C492.435 172.824 494.624 171.239 497.147 170.145C499.693 169.05 502.495 168.503 505.555 168.503C508.636 168.503 511.439 169.05 513.962 170.145C516.508 171.239 518.696 172.824 520.527 174.901C522.381 176.978 523.81 179.49 524.815 182.438C525.842 185.363 526.356 188.69 526.356 192.419ZM516.206 194.731V192.352C516.206 189.762 515.972 187.484 515.503 185.519C515.034 183.554 514.342 181.902 513.426 180.562C512.511 179.222 511.394 178.217 510.077 177.547C508.759 176.855 507.252 176.509 505.555 176.509C503.857 176.509 502.35 176.855 501.033 177.547C499.737 178.217 498.632 179.222 497.717 180.562C496.823 181.902 496.142 183.554 495.673 185.519C495.204 187.484 494.97 189.762 494.97 192.352V194.731C494.97 197.299 495.204 199.576 495.673 201.564C496.142 203.529 496.834 205.193 497.75 206.555C498.666 207.895 499.782 208.911 501.1 209.603C502.417 210.295 503.924 210.641 505.622 210.641C507.319 210.641 508.826 210.295 510.144 209.603C511.461 208.911 512.566 207.895 513.46 206.555C514.353 205.193 515.034 203.529 515.503 201.564C515.972 199.576 516.206 197.299 516.206 194.731ZM560.521 169.173H570.537V201.396C570.537 205.148 569.733 208.308 568.125 210.876C566.54 213.444 564.34 215.375 561.526 216.671C558.735 217.966 555.519 218.613 551.879 218.613C548.24 218.613 545.002 217.966 542.166 216.671C539.352 215.375 537.141 213.444 535.533 210.876C533.948 208.308 533.155 205.148 533.155 201.396V169.173H543.204V201.396C543.204 203.585 543.55 205.371 544.242 206.756C544.935 208.14 545.928 209.156 547.224 209.804C548.541 210.451 550.093 210.775 551.879 210.775C553.711 210.775 555.263 210.451 556.535 209.804C557.831 209.156 558.813 208.14 559.483 206.756C560.175 205.371 560.521 203.585 560.521 201.396V169.173ZM578.81 169.173H596.998C600.728 169.173 603.932 169.732 606.612 170.848C609.314 171.965 611.391 173.617 612.842 175.805C614.294 177.994 615.019 180.685 615.019 183.878C615.019 186.491 614.573 188.735 613.679 190.611C612.809 192.464 611.569 194.016 609.961 195.267C608.376 196.495 606.511 197.477 604.368 198.214L601.185 199.889H585.375L585.308 192.051H597.065C598.83 192.051 600.292 191.738 601.453 191.113C602.615 190.488 603.486 189.617 604.066 188.5C604.669 187.384 604.97 186.089 604.97 184.615C604.97 183.052 604.68 181.701 604.1 180.562C603.519 179.423 602.637 178.552 601.453 177.949C600.27 177.346 598.785 177.045 596.998 177.045H588.859V217.943H578.81V169.173ZM606.076 217.943L594.955 196.204L605.573 196.137L616.828 217.474V217.943H606.076ZM671.192 210.105V217.943H646.64V210.105H671.192ZM649.889 169.173V217.943H639.84V169.173H649.889ZM687.639 169.173V217.943H677.623V169.173H687.639ZM707.1 169.173V217.943H697.051V169.173H707.1ZM726.527 190.008V197.846H704.353V190.008H726.527ZM728.872 169.173V177.045H704.353V169.173H728.872ZM767.426 210.105V217.943H741.466V210.105H767.426ZM744.749 169.173V217.943H734.7V169.173H744.749ZM764.043 189.036V196.673H741.466V189.036H764.043ZM767.392 169.173V177.045H741.466V169.173H767.392Z" fill="#C03737"/>
<defs>
<filter id="filter0_d_330_123" x="22.7124" y="7.26648" width="151.33" height="134.179" filterUnits="userSpaceOnUse" color-interpolation-filters="sRGB">
<feFlood flood-opacity="0" result="BackgroundImageFix"/>
<feColorMatrix in="SourceAlpha" type="matrix" values="0 0 0 0 0 0 0 0 0 0 0 0 0 0 0 0 0 0 127 0" result="hardAlpha"/>
<feOffset dx="6.85997" dy="6.85997"/>
<feGaussianBlur stdDeviation="2.93999"/>
<feComposite in2="hardAlpha" operator="out"/>
<feColorMatrix type="matrix" values="0 0 0 0 0.754167 0 0 0 0 0.216823 0 0 0 0 0.216823 0 0 0 0.67 0"/>
<feBlend mode="normal" in2="BackgroundImageFix" result="effect1_dropShadow_330_123"/>
<feBlend mode="normal" in="SourceGraphic" in2="effect1_dropShadow_330_123" result="shape"/>
</filter>
</defs>
</svg>
